<svg width="16" height="16" viewBox="0 0 16 16" fill="none" xmlns="http://www.w3.org/2000/svg">
<path fill-rule="evenodd" clip-rule="evenodd" d="M5.18374 9.56513C5.6144 9.56513 6.47105 9.54085 7.65517 9.04107C9.03499 8.45853 11.7804 7.40114 13.7607 6.31501C15.1458 5.55535 15.7529 4.55063 15.7529 3.19762C15.7529 1.31978 14.2682 -0.202515 12.4367 -0.202515H4.76324C2.13257 -0.202515 0 1.98404 0 4.68131C0 7.37858 1.99671 9.56513 5.18374 9.56513Z" fill="black"/>
<path fill-rule="evenodd" clip-rule="evenodd" d="M6.48193 12.9304C6.48193 11.6082 7.25824 10.4161 8.44928 9.90929L10.8658 8.88103C13.3102 7.84086 16.0006 9.68266 16.0006 12.3961C16.0006 14.4985 14.3381 16.2026 12.2876 16.202L9.67129 16.2013C7.90971 16.2009 6.48193 14.7366 6.48193 12.9304Z" fill="black"/>
<path d="M2.74588 10.2076C1.2294 10.2076 0 11.4681 0 13.023V13.3877C0 14.9425 1.22934 16.2029 2.74582 16.2029C4.26229 16.2029 5.49169 14.9425 5.49169 13.3877V13.023C5.49169 11.4681 4.26235 10.2076 2.74588 10.2076Z" fill="black"/>
</svg>
