<svg preserveAspectRatio="none" width="100%" height="100%" overflow="visible" style="display: block;" viewBox="0 0 31 36" fill="none" xmlns="http://www.w3.org/2000/svg">
<path id="gagggleLogo" d="M29.041 0.0139458C29.707 -0.0819925 30.3319 0.346566 30.4951 0.999297C30.6247 1.51788 30.4338 2.06533 29.9941 2.36941C27.9094 3.81141 24.7331 5.57222 22.7998 5.81863C23.7598 6.5546 24.5285 7.41848 25.1045 8.41043C25.7125 9.3704 26.0156 10.4908 26.0156 11.7708C26.0156 13.8508 25.4876 15.6428 24.4316 17.1468C23.3756 18.6187 21.8719 19.755 19.9199 20.555C17.9999 21.3229 15.7116 21.7073 13.0557 21.7073L12.3242 21.7366C10.6721 21.8171 9.41198 21.9826 8.54395 22.2346C7.58405 22.4906 7.10459 23.0188 7.10449 23.8186C7.10449 24.2986 7.29579 24.683 7.67969 24.971C8.0636 25.2269 8.60776 25.3547 9.31152 25.3548H17.1357C19.2797 25.3548 21.1044 25.5786 22.6084 26.0266C24.1443 26.5066 25.3124 27.2912 26.1123 28.3792C26.9121 29.4991 27.3115 31.019 27.3115 32.9388C27.3115 34.1847 26.3016 35.1946 25.0557 35.1946H22.2236C21.5877 35.1944 21.0725 34.6792 21.0723 34.0432C21.0723 32.5712 20.5918 31.547 19.6318 30.971C18.7038 30.395 17.4239 30.1067 15.792 30.1067H8.35156C6.91179 30.1067 5.69599 29.9947 4.7041 29.7708C3.74423 29.5468 2.97637 29.2267 2.40039 28.8108C1.82439 28.3948 1.40834 27.8985 1.15234 27.3225C0.896426 26.7787 0.767613 26.187 0.767578 25.5471C0.767578 24.2674 1.18391 23.3073 2.01562 22.6673C2.84763 21.9953 3.96798 21.5465 5.37598 21.3225C6.18516 21.1938 7.04198 21.1251 7.94629 21.1126C7.3375 20.957 6.75268 20.7718 6.19238 20.555C4.2404 19.755 2.71983 18.587 1.63184 17.0511C0.543836 15.5151 0 13.6587 0 11.4827C3.1055e-05 9.33891 0.528152 7.4832 1.58398 5.91531C2.63994 4.34738 4.14382 3.13087 6.0957 2.26688C8.07962 1.40291 10.3998 0.971014 13.0557 0.970977C13.7916 0.970977 14.496 1.01854 15.168 1.11453C19.718 1.73499 24.4552 0.6746 29.041 0.0139458ZM13.0557 5.72293C11.6799 5.72297 10.4641 5.96277 9.4082 6.44266C8.35232 6.89061 7.53595 7.54657 6.95996 8.41043C6.38401 9.27435 6.09576 10.3147 6.0957 11.5305C6.0957 12.7145 6.38399 13.7388 6.95996 14.6028C7.53596 15.4348 8.33635 16.0747 9.36035 16.5227C10.4162 16.9706 11.6479 17.1946 13.0557 17.1946C14.4317 17.1946 15.6322 16.9707 16.6562 16.5227C17.7121 16.0747 18.5285 15.4347 19.1045 14.6028C19.6804 13.7389 19.9678 12.7144 19.9678 11.5305C19.9677 10.3147 19.6804 9.27435 19.1045 8.41043C18.5285 7.54647 17.7281 6.89064 16.7041 6.44266C15.6801 5.96266 14.4637 5.72293 13.0557 5.72293ZM13 6.85477C15.2091 6.85477 16.9999 8.42184 17 10.3548C17 12.2878 15.2091 13.8548 13 13.8548C10.7909 13.8548 9 12.2878 9 10.3548C9.00009 8.42184 10.7909 6.85477 13 6.85477Z" fill="var(--fill-0, black)"/>
</svg>
