<svg width="8" height="6" viewBox="0 0 8 6" fill="none" xmlns="http://www.w3.org/2000/svg">
<path d="M7.58496 0.0075531C7.77184 -0.0209418 7.94739 0.100055 7.99121 0.28392C8.02418 0.423063 7.97472 0.569582 7.85938 0.654037C7.31327 1.05267 6.48039 1.5399 5.97363 1.60814C6.22515 1.81158 6.42624 2.05074 6.57715 2.32494C6.7364 2.59027 6.81641 2.89989 6.81641 3.25365C6.81639 3.82855 6.67802 4.32427 6.40137 4.73997C6.12471 5.14679 5.73011 5.46028 5.21875 5.68138C4.71581 5.89361 4.11659 5.99971 3.4209 5.99974C2.74181 5.99974 2.14187 5.89367 1.62207 5.68138C1.11077 5.46025 0.71274 5.13713 0.427734 4.71263C0.142772 4.2881 0 3.77495 0 3.17357C6.11465e-05 2.58111 0.138434 2.06782 0.415039 1.63451C0.691621 1.20135 1.08559 0.865447 1.59668 0.626694C2.11648 0.387874 2.72504 0.268295 3.4209 0.268295C3.61352 0.268309 3.79774 0.281838 3.97363 0.308334C5.15783 0.478701 6.39094 0.190387 7.58496 0.0075531ZM3.4209 1.58177C3.06039 1.58177 2.74151 1.64831 2.46484 1.78099C2.1882 1.90482 1.97414 2.08613 1.82324 2.32494C1.67241 2.56372 1.59668 2.85121 1.59668 3.18724C1.59668 3.51451 1.67234 3.79803 1.82324 4.03685C1.97413 4.26669 2.18399 4.44333 2.45215 4.56712C2.72881 4.69096 3.05201 4.75267 3.4209 4.75267C3.78128 4.75264 4.09605 4.69092 4.36426 4.56712C4.64055 4.44338 4.85406 4.2665 5.00488 4.03685C5.15579 3.79803 5.23144 3.51451 5.23145 3.18724C5.23145 2.85112 5.15579 2.56376 5.00488 2.32494C4.85398 2.08613 4.64425 1.90482 4.37598 1.78099C4.10782 1.64843 3.78955 1.58181 3.4209 1.58177ZM3.40625 1.89427C3.98483 1.89443 4.45402 2.3279 4.4541 2.86205C4.4541 3.39625 3.98488 3.82966 3.40625 3.82982C2.82747 3.82982 2.3584 3.39635 2.3584 2.86205C2.35848 2.3278 2.82752 1.89427 3.40625 1.89427Z" fill="#E2E8F0"/>
</svg>
