<svg preserveAspectRatio="none" width="100%" height="100%" overflow="visible" style="display: block;" viewBox="0 0 14 18" fill="none" xmlns="http://www.w3.org/2000/svg">
<path id="Vector" d="M3.2925 4.2925C2.9025 3.9025 2.9025 3.2725 3.2925 2.8825L5.8825 0.2925C6.2725 -0.0975 6.9025 -0.0975 7.2925 0.2925L9.8825 2.8825C10.2725 3.2725 10.2725 3.9025 9.8825 4.2925C9.4925 4.6825 8.8625 4.6825 8.4725 4.2925L7.5825 3.4125V8.5125C7.5825 9.5725 8.0025 10.5925 8.7525 11.3425L12.8725 15.4625C13.2625 15.8525 13.2625 16.4825 12.8725 16.8725C12.4825 17.2625 11.8525 17.2625 11.4625 16.8725L6.5825 11.9925L1.7025 16.8725C1.3125 17.2625 0.6825 17.2625 0.2925 16.8725C-0.0975 16.4825 -0.0975 15.8525 0.2925 15.4625L4.4125 11.3425C5.1625 10.5925 5.5825 9.5725 5.5825 8.5125V3.4125L4.7025 4.2925C4.3125 4.6825 3.6825 4.6825 3.2925 4.2925Z" fill="var(--fill-0, #90A1B9)"/>
</svg>
