<svg preserveAspectRatio="none" width="100%" height="100%" overflow="visible" style="display: block;" viewBox="0 0 20 20" fill="none" xmlns="http://www.w3.org/2000/svg">
<path id="Vector" d="M18.2083 7.97794C18.3751 7.48324 18.4602 6.96528 18.4603 6.44391C18.4602 5.5812 18.2273 4.73406 17.7855 3.98958C16.8978 2.46488 15.251 1.52355 13.4687 1.52355C13.1176 1.52355 12.7675 1.56014 12.4241 1.63271C11.9623 1.11934 11.3955 0.708394 10.761 0.426965C10.1265 0.145535 9.4387 1.50041e-05 8.74303 0H8.71178L8.70006 6.80175e-05C6.54141 6.80175e-05 4.62706 1.37444 3.96347 3.40057C3.27657 3.53938 2.62764 3.82138 2.06014 4.22768C1.49264 4.63399 1.01965 5.15522 0.672832 5.75649C0.232378 6.50545 0.000269526 7.35593 0 8.22185C0.000168326 9.43879 0.457996 10.6124 1.28483 11.5154C1.11793 12.01 1.03281 12.528 1.03273 13.0494C1.03281 13.9121 1.26571 14.7592 1.7075 15.5037C2.23286 16.4063 3.03516 17.1208 3.9987 17.5444C4.96224 17.968 6.03722 18.0787 7.06864 17.8605C7.53049 18.3739 8.09738 18.7848 8.73193 19.0663C9.36649 19.3477 10.0543 19.4933 10.75 19.4933H10.7812L10.7939 19.4932C12.9538 19.4932 14.8675 18.1188 15.5311 16.0908C16.218 15.952 16.8669 15.6699 17.4344 15.2636C18.0019 14.8573 18.4749 14.3361 18.8218 13.7348C19.2618 12.9865 19.4934 12.1368 19.4933 11.2717C19.4931 10.0547 19.0353 8.88117 18.2085 7.97821L18.2083 7.97794ZM10.7825 18.2189H10.7774C9.91315 18.2186 9.07635 17.9195 8.41251 17.3735C8.45193 17.3525 8.49088 17.3307 8.52935 17.3081L12.463 15.0662C12.5612 15.0111 12.6428 14.9313 12.6996 14.8349C12.7564 14.7386 12.7863 14.6291 12.7864 14.5177V9.04205L14.449 9.9893C14.4578 9.9936 14.4653 9.99995 14.4709 10.0078C14.4766 10.0156 14.4802 10.0247 14.4814 10.0343V14.5658C14.4791 16.5805 12.8245 18.2148 10.7825 18.2189ZM2.8279 14.8667C2.50297 14.3124 2.33178 13.6834 2.33157 13.043C2.33157 12.8341 2.35005 12.6247 2.38605 12.4189C2.4153 12.4362 2.46634 12.467 2.50296 12.4877L6.43663 14.7297C6.53471 14.7862 6.64623 14.8159 6.75979 14.8159C6.87335 14.8159 6.98487 14.7861 7.08291 14.7295L11.8855 11.9934V13.888L11.8856 13.8912C11.8856 13.9004 11.8834 13.9094 11.8793 13.9175C11.8752 13.9257 11.8692 13.9328 11.8618 13.9383L7.88521 16.2037C7.32254 16.5232 6.68476 16.6914 6.03556 16.6916C5.38567 16.6915 4.74723 16.5229 4.18424 16.2025C3.62125 15.8822 3.1535 15.4215 2.8279 14.8665V14.8667ZM1.79302 6.39349C2.22507 5.65305 2.90725 5.08611 3.7202 4.79188C3.7202 4.8253 3.71827 4.8845 3.71827 4.92561V9.40954L3.7182 9.41322C3.71822 9.52455 3.7481 9.6339 3.8048 9.73016C3.86151 9.82641 3.94302 9.90615 4.04106 9.96126L8.84366 12.697L7.18106 13.6443C7.17286 13.6496 7.16345 13.6528 7.15366 13.6537C7.14388 13.6546 7.13403 13.6531 7.12499 13.6493L3.148 11.382C2.58579 11.0606 2.11906 10.5991 1.79457 10.0437C1.47009 9.48831 1.29925 8.85851 1.29918 8.21743C1.29943 7.57735 1.46978 6.94853 1.79323 6.39369L1.79302 6.39349ZM15.4535 9.53007L10.6509 6.79399L12.3136 5.84707C12.3218 5.84173 12.3312 5.83848 12.3409 5.8376C12.3507 5.83672 12.3606 5.83825 12.3696 5.84204L16.3465 8.10745C16.9092 8.4283 17.3764 8.88955 17.7013 9.44491C18.0262 10.0003 18.1973 10.6302 18.1974 11.2714C18.1974 12.8019 17.2295 14.1713 15.7742 14.6999V10.0819C15.7744 10.0802 15.7744 10.0785 15.7744 10.0768C15.7744 9.96583 15.7447 9.85687 15.6883 9.76089C15.632 9.6649 15.551 9.58529 15.4535 9.53007ZM17.1084 7.07254C17.0697 7.04916 17.0307 7.02625 16.9915 7.0038L13.0578 4.7618C12.9598 4.70541 12.8483 4.67568 12.7348 4.67564C12.6213 4.67568 12.5098 4.70541 12.4117 4.7618L7.60904 7.49795V5.60337L7.60897 5.6001C7.60897 5.58159 7.61787 5.56417 7.63283 5.55308L11.6094 3.28957C12.1719 2.96961 12.8097 2.80117 13.459 2.80114C15.5036 2.80114 17.1617 4.43718 17.1617 6.4546C17.1616 6.66163 17.1438 6.86828 17.1084 7.07233V7.07254ZM6.70508 10.4493L5.04207 9.50203C5.03334 9.49774 5.02582 9.49139 5.02018 9.48354C5.01454 9.47569 5.01094 9.46659 5.00972 9.45705V4.92547C5.01062 2.90914 6.66873 1.27446 8.71247 1.27446C9.57806 1.27464 10.4163 1.57383 11.0816 2.12011C11.0517 2.13624 10.9995 2.16469 10.9648 2.18545L7.03111 4.42738C6.93296 4.48248 6.85135 4.56223 6.79457 4.65854C6.73779 4.75485 6.70786 4.86428 6.70784 4.9757V4.97931L6.70508 10.4493ZM7.60828 8.52789L9.74727 7.30889L11.8863 8.52708V10.9643L9.74727 12.1825L7.60828 10.9643V8.52789Z" fill="var(--fill-0, black)"/>
</svg>
