<svg preserveAspectRatio="none" width="100%" height="100%" overflow="visible" style="display: block;" viewBox="0 0 17 18" fill="none" xmlns="http://www.w3.org/2000/svg">
<path id="Vector" d="M14.8961 3C14.2736 3 13.7711 3.5025 13.7711 4.125V7.875C13.7711 8.085 13.6061 8.25 13.3961 8.25C13.1861 8.25 13.0211 8.085 13.0211 7.875V1.875C13.0211 1.2525 12.5186 0.75 11.8961 0.75C11.2736 0.75 10.7711 1.2525 10.7711 1.875V7.875C10.7711 8.085 10.6061 8.25 10.3961 8.25C10.1861 8.25 10.0211 8.085 10.0211 7.875V1.125C10.0211 0.5025 9.51858 0 8.89608 0C8.27358 0 7.77108 0.5025 7.77108 1.125V7.8675C7.77108 8.0775 7.60608 8.2425 7.39608 8.2425C7.18609 8.2425 7.02108 8.0775 7.02108 7.8675V3.375C7.02108 2.7525 6.51858 2.25 5.89608 2.25C5.27358 2.25 4.77108 2.7525 4.77108 3.375V11.9325L1.68109 10.17C1.24609 9.9225 0.706085 9.99 0.346085 10.335C-0.103915 10.77 -0.118915 11.49 0.323585 11.9325L5.40858 17.1C5.97108 17.6775 6.73608 18 7.54608 18H13.0211C14.6786 18 16.0211 16.6575 16.0211 15V4.125C16.0211 3.5025 15.5186 3 14.8961 3Z" fill="var(--fill-0, #45556C)"/>
</svg>
