<svg preserveAspectRatio="none" width="100%" height="100%" overflow="visible" style="display: block;" viewBox="0 0 26 23" fill="none" xmlns="http://www.w3.org/2000/svg">
<g id="Group 1">
<path id="Star 1" d="M13.6998 3.02665C14.0428 2.03349 15.4474 2.03349 15.7904 3.02665L17.3671 7.59203C17.4723 7.89668 17.7052 8.14027 18.0048 8.25906L22.4736 10.0308C23.4047 10.3999 23.4047 11.7177 22.4736 12.0869L18.0048 13.8586C17.7052 13.9774 17.4723 14.221 17.3671 14.5256L15.7904 19.091C15.4474 20.0842 14.0428 20.0842 13.6998 19.091L12.1231 14.5256C12.0178 14.221 11.785 13.9774 11.4853 13.8586L7.01651 12.0869C6.08544 11.7177 6.08544 10.3999 7.01651 10.0308L11.4853 8.25906C11.785 8.14027 12.0178 7.89668 12.1231 7.59203L13.6998 3.02665Z" fill="var(--fill-0, #45556C)"/>
<path id="Star 2" d="M4.63814 12.5721C4.80964 12.0756 5.51193 12.0756 5.68343 12.5721L6.47179 14.8548C6.5244 15.0072 6.64084 15.129 6.79065 15.1884L9.02507 16.0742C9.4906 16.2588 9.4906 16.9177 9.02507 17.1023L6.79065 17.9881C6.64084 18.0475 6.5244 18.1693 6.47179 18.3216L5.68343 20.6043C5.51193 21.1009 4.80964 21.1009 4.63814 20.6043L3.84978 18.3216C3.79717 18.1693 3.68072 18.0475 3.53092 17.9881L1.2965 17.1023C0.830967 16.9177 0.830968 16.2588 1.2965 16.0742L3.53092 15.1884C3.68072 15.129 3.79717 15.0072 3.84977 14.8548L4.63814 12.5721Z" fill="var(--fill-0, #45556C)"/>
</g>
</svg>
